<?xml version="1.0" standalone="no"?>
<!DOCTYPE svg PUBLIC "-//W3C//DTD SVG 20010904//EN"
 "http://www.w3.org/TR/2001/REC-SVG-20010904/DTD/svg10.dtd">
<svg version="1.0" xmlns="http://www.w3.org/2000/svg"
 width="500.000000pt" height="500.000000pt" viewBox="0 0 500.000000 500.000000"
 preserveAspectRatio="xMidYMid meet">

<g transform="translate(0.000000,500.000000) scale(0.100000,-0.100000)"
fill="#ffffff" stroke="none">
<path d="M2575 4321 c-49 -22 -99 -77 -115 -126 -17 -52 -8 -141 20 -198 13
-26 52 -82 85 -125 76 -94 93 -138 71 -181 -9 -16 -36 -49 -60 -71 -58 -54
-86 -115 -86 -182 1 -69 26 -123 83 -175 163 -150 437 -161 666 -26 125 74
275 246 302 347 15 54 6 162 -16 206 -79 157 -338 353 -648 490 -136 60 -232
73 -302 41z m168 -118 c13 -8 7 -30 -29 -112 -38 -84 -57 -101 -94 -81 -67 36
-65 171 4 200 19 9 101 4 119 -7z m180 -79 c50 -26 94 -48 96 -50 3 -3 -11
-36 -30 -75 -36 -76 -77 -119 -112 -119 -59 1 -147 68 -147 112 0 37 72 178
91 178 5 0 51 -21 102 -46z m264 -156 c41 -29 78 -58 80 -66 7 -18 -85 -151
-114 -165 -31 -14 -88 4 -135 43 -51 42 -51 80 -1 158 51 79 65 94 81 87 8 -3
48 -28 89 -57z m219 -220 c30 -60 30 -78 -2 -113 -22 -24 -31 -27 -65 -22 -45
6 -104 46 -114 77 -7 23 7 48 63 118 l35 43 29 -28 c17 -15 41 -49 54 -75z
m-710 -274 c36 -9 48 -45 30 -85 -27 -61 -30 -63 -61 -43 -15 10 -34 33 -42
52 -12 30 -12 37 2 58 16 24 32 28 71 18z m224 -87 c71 -36 78 -53 44 -105
-15 -23 -19 -24 -86 -17 -62 6 -138 28 -138 39 0 13 55 98 68 106 27 15 43 12
112 -23z m155 -81 c17 -12 16 -13 -10 -20 -32 -8 -38 -5 -29 18 7 20 15 20 39
2z"/>
<path d="M1841 3585 c-268 -49 -471 -196 -577 -420 -21 -42 -42 -95 -47 -118
-7 -28 -12 -415 -14 -1127 -4 -1198 -7 -1135 59 -1234 56 -85 127 -129 235
-146 45 -7 395 -10 1048 -8 906 3 983 4 1017 20 34 16 68 51 68 70 0 5 -483 8
-1072 8 -1038 0 -1074 1 -1113 20 -67 32 -107 77 -132 150 -10 27 -13 280 -13
1097 0 1169 -3 1113 62 1243 47 93 205 250 252 250 9 0 16 5 16 11 0 5 4 8 9
5 5 -4 11 -1 13 5 4 12 104 50 112 42 3 -3 13 0 21 7 9 7 28 15 43 16 15 2 49
8 76 14 27 5 52 8 54 5 3 -3 0 -16 -6 -30 -21 -47 14 -164 54 -179 9 -3 12
-10 9 -16 -3 -6 1 -7 9 -4 17 7 23 -20 7 -30 -4 -3 -4 -29 0 -57 9 -59 46
-112 97 -141 29 -16 105 -42 127 -43 6 0 20 -21 31 -46 35 -76 115 -118 207
-109 31 3 57 2 57 -2 0 -5 3 -7 8 -5 4 1 19 -9 32 -22 30 -29 97 -60 128 -61
19 0 22 -5 22 -45 0 -41 2 -45 24 -45 13 0 38 -3 55 -6 l31 -6 0 -99 0 -99 55
0 55 0 0 -80 0 -80 50 0 50 0 0 130 0 130 -50 0 -50 0 0 55 0 55 50 0 50 0 0
145 0 145 -49 0 c-45 0 -49 -2 -56 -27 -3 -14 -5 -58 -4 -97 l2 -71 -54 0 -54
0 -3 54 -3 53 -32 -5 c-18 -3 -36 -6 -42 -7 -51 -11 -115 29 -115 71 0 11 -9
28 -20 39 l-20 20 -40 -20 c-25 -13 -59 -20 -94 -20 -49 0 -57 3 -85 35 -22
25 -31 46 -31 70 0 43 -20 55 -81 48 -95 -11 -180 68 -150 140 8 18 16 46 18
63 4 25 0 32 -22 42 -14 7 -32 12 -40 12 -20 0 -45 40 -45 73 0 15 9 45 20 67
26 51 25 75 -2 94 -27 20 -113 20 -217 1z"/>
<path d="M1871 3304 c0 -11 3 -14 6 -6 3 7 2 16 -1 19 -3 4 -6 -2 -5 -13z"/>
<path d="M1460 2625 l0 -325 330 0 330 0 0 325 0 325 -330 0 -330 0 0 -325z
m560 -5 l0 -230 -230 0 -229 0 -3 230 -3 230 233 0 232 0 0 -230z"/>
<path d="M1658 2723 c-2 -16 -3 -73 -3 -128 l1 -100 132 -3 132 -3 0 131 0
130 -129 0 -129 0 -4 -27z"/>
<path d="M3160 2626 l0 -324 308 -4 c169 -2 313 -2 320 0 9 3 12 78 12 328 l0
324 -320 0 -320 0 0 -324z m540 -6 l0 -230 -217 2 -218 3 -3 228 -2 227 220 0
220 0 0 -230z"/>
<path d="M3370 2620 l0 -130 115 0 115 0 0 130 0 130 -115 0 -115 0 0 -130z"/>
<path d="M2450 2710 l0 -50 50 0 50 0 0 -55 0 -55 -49 0 -49 0 -7 50 -7 50
-49 0 -49 0 0 51 0 50 -52 -3 -53 -3 -1 -277 -2 -278 54 0 54 0 0 -55 0 -55
50 0 50 0 0 49 c0 48 0 48 38 55 77 12 72 24 72 -150 l0 -155 -52 3 -53 3 -3
51 -3 51 -47 -1 -47 -1 -5 -50 -5 -50 -52 -3 -53 -3 0 -45 0 -44 -184 0 -183
0 -7 -50 -7 -50 -50 0 -50 0 3 98 3 97 50 5 50 5 3 43 3 42 43 0 c46 0 56 -12
56 -67 0 -22 4 -23 80 -23 l80 0 0 45 0 45 55 0 55 0 0 49 0 50 -52 3 -53 3
-3 46 c-3 43 -5 47 -34 53 -17 3 -52 6 -79 6 -49 0 -49 0 -49 -32 0 -68 -8
-79 -54 -76 l-41 3 -9 53 -9 52 -193 0 -194 0 0 -55 0 -55 50 0 50 0 0 -45 0
-45 -50 0 -50 0 0 -105 0 -105 94 0 95 0 3 -42 3 -43 47 -3 47 -3 3 -102 3
-102 38 -3 c49 -4 67 11 67 59 l0 38 48 3 47 3 3 53 3 52 189 0 189 0 3 48 3
47 53 3 52 3 0 -49 c0 -55 7 -62 66 -62 34 0 34 0 34 -45 l0 -45 -51 0 -50 0
3 -52 3 -53 98 -3 97 -3 0 -100 0 -100 -47 3 -48 3 -3 46 c-3 45 -4 47 -40 53
-20 3 -42 6 -48 6 -8 0 -14 -38 -19 -105 l-7 -105 -49 0 -49 0 0 99 0 98 -46
7 c-25 3 -50 3 -55 0 -6 -3 -9 -137 -9 -325 l2 -319 104 0 104 0 0 49 c0 75 5
81 61 81 l49 0 0 105 0 105 95 0 95 0 0 50 0 50 -45 0 -45 0 0 50 0 50 81 0
c103 0 117 7 116 62 l-1 43 55 0 54 0 3 -52 3 -53 50 0 49 0 0 -100 0 -100 50
0 50 0 0 -45 0 -45 -50 0 -50 0 0 -125 0 -125 44 0 c41 0 44 2 50 31 3 17 6
47 6 66 l0 34 48 -3 47 -3 5 -65 5 -65 50 0 50 0 3 67 3 67 52 3 52 3 3 52 3
52 52 3 52 3 3 47 3 48 55 0 54 0 0 -50 0 -50 50 0 50 0 0 200 0 199 -50 7
-50 7 0 43 0 44 -115 0 -116 0 3 103 3 102 53 3 52 3 0 -49 c0 -57 7 -62 75
-62 l44 0 3 -47 3 -48 48 -3 47 -3 0 155 0 156 -51 0 -50 0 3 48 3 47 53 3 52
3 0 150 0 149 -50 0 c-51 0 -55 -3 -50 -44 1 -10 -1 -29 -4 -42 -6 -22 -12
-24 -61 -24 l-54 0 -3 53 -3 52 -57 3 -58 3 0 -51 0 -50 -34 0 c-57 0 -66 -8
-66 -56 l0 -44 -42 0 c-58 0 -66 -8 -70 -60 l-3 -45 -45 0 -45 0 -3 48 -3 47
50 0 51 0 0 50 0 50 56 0 55 0 -3 53 -3 52 -52 3 -53 3 0 -55 0 -56 -49 0 -50
0 -3 53 -3 52 -152 -1 c-130 0 -154 2 -158 15 -2 9 -4 59 -4 111 1 52 0 105 0
117 -1 21 -6 22 -93 25 l-93 3 -3 48 -3 47 46 0 46 0 -3 53 -3 52 -92 3 -93 3
0 49 0 50 -50 0 -50 0 0 -50z m200 -305 l0 -45 45 0 44 0 3 -87 3 -88 53 -3
53 -3 -3 -47 -3 -47 -95 0 -95 0 -3 83 -3 82 -49 0 -50 0 0 55 0 55 -49 0 -50
0 -3 -52 -3 -53 -50 0 -50 0 -3 98 -3 97 156 0 155 0 0 -45z m-900 -370 l0
-45 -50 0 -50 0 0 45 0 45 50 0 50 0 0 -45z m370 0 l0 -45 -80 0 -80 0 0 45 0
45 80 0 80 0 0 -45z m940 -49 l0 -95 48 -3 47 -3 3 -47 3 -48 -100 0 -101 0 0
-50 0 -50 -60 0 -60 0 0 51 0 50 -47 -3 -48 -3 -3 -47 -3 -48 -95 0 -94 0 0
44 0 45 53 3 52 3 3 98 3 97 39 0 c35 0 40 -3 40 -22 0 -57 10 -68 56 -68 l44
0 0 45 0 44 58 3 57 3 0 48 0 47 53 0 52 0 0 -94z m520 -96 l0 -100 -105 0
-105 0 0 50 0 50 50 0 50 0 0 44 c0 48 5 52 78 55 l32 1 0 -100z m-215 -355
l0 -150 -110 -1 c-60 0 -129 2 -152 4 l-43 4 0 149 0 150 153 -3 152 -3 0
-150z m-517 3 l-3 -53 -50 0 -50 0 -3 53 -3 52 56 0 56 0 -3 -52z m852 -208
l0 -50 -60 0 -60 0 0 -45 0 -45 -55 0 -55 0 0 -55 0 -55 -49 0 -50 0 -3 -47
-3 -48 -55 -3 -56 -3 2 48 2 48 57 3 56 3 -2 102 -2 102 52 3 51 3 0 45 0 44
115 0 115 0 0 -50z m-442 -87 l-3 -48 -47 -3 -48 -3 0 50 0 51 51 0 50 0 -3
-47z"/>
<path d="M3162 1538 l3 -53 45 0 45 0 3 53 3 52 -51 0 -51 0 3 -52z"/>
<path d="M1460 1585 l0 -106 48 3 47 3 0 100 0 100 -47 3 -48 3 0 -106z"/>
<path d="M1957 1583 c-2 -5 -4 -28 -3 -53 l1 -45 80 0 80 0 3 53 3 52 -80 0
c-44 0 -82 -3 -84 -7z"/>
<path d="M2238 1568 c-2 -13 -1 -38 1 -56 3 -33 4 -33 50 -30 l46 3 3 53 3 52
-50 0 c-44 0 -50 -3 -53 -22z"/>
<path d="M1460 1066 l0 -326 330 0 330 0 0 319 0 318 -137 6 c-76 3 -225 6
-330 7 l-193 2 0 -326z m560 -11 l0 -225 -230 0 -230 0 0 225 0 225 230 0 230
0 0 -225z"/>
<path d="M1656 1153 c-3 -16 -5 -71 -3 -123 l2 -95 133 -3 132 -3 0 126 0 125
-129 0 -129 0 -6 -27z"/>
<path d="M2840 1030 l0 -50 55 0 55 0 0 50 0 50 -55 0 -55 0 0 -50z"/>
<path d="M3599 953 c-1 -5 -2 -12 -4 -18 -1 -5 -3 -22 -3 -37 -2 -27 -4 -28
-62 -28 l-61 0 3 -67 3 -68 160 0 160 0 3 68 3 67 -51 0 -50 0 0 45 0 45 -50
0 c-27 0 -51 -3 -51 -7z"/>
<path d="M2747 943 c-4 -3 -7 -51 -7 -105 l0 -99 108 3 107 3 3 39 c2 22 1 50
-2 63 -6 21 -12 23 -61 23 l-55 0 0 40 0 40 -43 0 c-24 0 -47 -3 -50 -7z"/>
</g>
</svg>
